<?xml version="1.0" encoding="utf-8"?>
<!-- Generator: Adobe Illustrator 19.2.0, SVG Export Plug-In . SVG Version: 6.00 Build 0)  -->
<svg version="1.1" id="Camada_1" xmlns="http://www.w3.org/2000/svg" xmlns:xlink="http://www.w3.org/1999/xlink" x="0px" y="0px"
	 viewBox="0 0 64.5 82" style="enable-background:new 0 0 64.5 82;" xml:space="preserve">
<style type="text/css">
	.st0{fill:#FFFFFF;}
</style>
<g>
	<path class="st0" d="M48.8,40c1.1-2.4,1.7-5,1.7-7.7c0-10.1-8.2-18.3-18.3-18.3C22.2,14,14,22.2,14,32.2c0,10.1,8.2,18.3,18.3,18.3
		c4.9,0,9.3-1.9,12.5-5L26.7,31.8H38L48.8,40z"/>
	<path class="st0" d="M63.1,41.6c0.1-0.3,0.2-0.6,0.3-0.9c0.8-2.8,1.2-5.7,1.1-8.4c0,0,0,0,0,0l0,0c0,0,0,0,0,0l0,0
		C64.5,14.4,50,0,32.2,0C14.4,0,0,14.4,0,32.2l0,0c0,0,0,0,0,0l0,0c0,0,0,0,0,0c-0.1,2.5,0.3,5,0.9,7.6C1,40.1,1,40.3,1.1,40.6
		c0.1,0.3,0.2,0.5,0.2,0.8c0.1,0.4,0.2,0.7,0.4,1.1C8.3,62.6,32.2,82,32.2,82s15.2-12.3,24.7-27.4L56,54l-5.7-4.3
		c-4.6,4.7-11,7.7-18,7.7c-13.9,0-25.1-11.2-25.1-25.1c0-13.9,11.2-25.1,25.1-25.1c13.9,0,25.1,11.2,25.1,25.1c0,4.3-1.1,8.4-3,11.9
		l5.7,4.3l0.2,0.1c0.9-1.9,1.7-3.7,2.4-5.6c0-0.1,0.1-0.2,0.1-0.3C62.9,42.3,63,42,63.1,41.6z"/>
</g>
</svg>
